<svg width="30" height="30" viewBox="0 0 30 30" fill="none" xmlns="http://www.w3.org/2000/svg">
<path fill-rule="evenodd" clip-rule="evenodd" d="M13.4467 3.4467C14.8532 2.04018 16.7609 1.25 18.75 1.25H22.5C23.1904 1.25 23.75 1.80965 23.75 2.5V7.5C23.75 8.19035 23.1904 8.75 22.5 8.75H18.75V11.25H22.5C22.8849 11.25 23.2484 11.4273 23.4853 11.7307C23.7221 12.0341 23.806 12.4297 23.7126 12.8031L22.4626 17.8031C22.3236 18.3596 21.8236 18.75 21.25 18.75H18.75V27.5C18.75 28.1904 18.1904 28.75 17.5 28.75H12.5C11.8096 28.75 11.25 28.1904 11.25 27.5V18.75H8.75C8.05965 18.75 7.5 18.1904 7.5 17.5V12.5C7.5 11.8097 8.05965 11.25 8.75 11.25H11.25V8.75C11.25 6.76087 12.0402 4.85322 13.4467 3.4467ZM18.75 3.75C17.4239 3.75 16.1521 4.27679 15.2145 5.21446C14.2768 6.15215 13.75 7.42391 13.75 8.75V12.5C13.75 13.1904 13.1904 13.75 12.5 13.75H10V16.25H12.5C13.1904 16.25 13.75 16.8096 13.75 17.5V26.25H16.25V17.5C16.25 16.8096 16.8096 16.25 17.5 16.25H20.274L20.899 13.75H17.5C16.8096 13.75 16.25 13.1904 16.25 12.5V8.75C16.25 8.08696 16.5134 7.45108 16.9823 6.98224C17.4511 6.51339 18.087 6.25 18.75 6.25H21.25V3.75H18.75Z" fill="#29A0C1"/>
</svg>
