<svg width="30" height="30" viewBox="0 0 30 30" fill="none" xmlns="http://www.w3.org/2000/svg">
<path fill-rule="evenodd" clip-rule="evenodd" d="M8.75 3.75C5.98857 3.75 3.75 5.98857 3.75 8.75V21.25C3.75 24.0114 5.98857 26.25 8.75 26.25H21.25C24.0114 26.25 26.25 24.0114 26.25 21.25V8.75C26.25 5.98857 24.0114 3.75 21.25 3.75H8.75ZM1.25 8.75C1.25 4.60786 4.60786 1.25 8.75 1.25H21.25C25.3921 1.25 28.75 4.60786 28.75 8.75V21.25C28.75 25.3921 25.3921 28.75 21.25 28.75H8.75C4.60786 28.75 1.25 25.3921 1.25 21.25V8.75Z" fill="#29A0C1"/>
<path fill-rule="evenodd" clip-rule="evenodd" d="M15.6041 11.2365C14.8239 11.1208 14.0271 11.2541 13.327 11.6173C12.6269 11.9806 12.0591 12.5554 11.7044 13.2599C11.3498 13.9646 11.2264 14.7629 11.3517 15.5417C11.477 16.3204 11.8447 17.0398 12.4024 17.5976C12.9601 18.1553 13.6796 18.5229 14.4584 18.6483C15.237 18.7736 16.0355 18.6502 16.74 18.2956C17.4446 17.9409 18.0194 17.3732 18.3826 16.6731C18.746 15.9729 18.8793 15.1761 18.7635 14.3958C18.6455 13.5999 18.2746 12.8632 17.7058 12.2943C17.1369 11.7254 16.4 11.3545 15.6041 11.2365ZM12.1755 9.39829C13.3424 8.79282 14.6705 8.5707 15.9709 8.76353C17.2972 8.96023 18.5253 9.57832 19.4735 10.5265C20.4218 11.4747 21.0398 12.7027 21.2365 14.0292C21.4293 15.3296 21.2072 16.6576 20.6017 17.8244C19.9962 18.9913 19.0382 19.9376 17.864 20.5287C16.6897 21.1197 15.359 21.3254 14.0611 21.1166C12.7633 20.9077 11.5642 20.2949 10.6347 19.3653C9.7051 18.4358 9.09231 17.2368 8.88346 15.9388C8.67461 14.6409 8.88032 13.3102 9.47136 12.136C10.0624 10.9617 11.0086 10.0038 12.1755 9.39829Z" fill="#29A0C1"/>
<path fill-rule="evenodd" clip-rule="evenodd" d="M20.625 8.125C20.625 7.43465 21.1846 6.875 21.875 6.875H21.8875C22.5779 6.875 23.1375 7.43465 23.1375 8.125C23.1375 8.81535 22.5779 9.375 21.8875 9.375H21.875C21.1846 9.375 20.625 8.81535 20.625 8.125Z" fill="#29A0C1"/>
</svg>
