<svg width="40" height="40" viewBox="0 0 40 40" fill="none" xmlns="http://www.w3.org/2000/svg">
<mask id="mask0_342_569" style="mask-type:alpha" maskUnits="userSpaceOnUse" x="0" y="0" width="40" height="40">
<rect width="40" height="40" fill="#D9D9D9"/>
</mask>
<g mask="url(#mask0_342_569)">
<path d="M6.66665 33.3333C5.74998 33.3333 4.96526 33.0069 4.31248 32.3541C3.6597 31.7013 3.33331 30.9166 3.33331 30V9.99996C3.33331 9.08329 3.6597 8.29857 4.31248 7.64579C4.96526 6.99301 5.74998 6.66663 6.66665 6.66663H33.3333C34.25 6.66663 35.0347 6.99301 35.6875 7.64579C36.3403 8.29857 36.6666 9.08329 36.6666 9.99996V30C36.6666 30.9166 36.3403 31.7013 35.6875 32.3541C35.0347 33.0069 34.25 33.3333 33.3333 33.3333H6.66665ZM20 21.6666L6.66665 13.3333V30H33.3333V13.3333L20 21.6666ZM20 18.3333L33.3333 9.99996H6.66665L20 18.3333ZM6.66665 13.3333V9.99996V30V13.3333Z" fill="white"/>
</g>
</svg>
