<svg width="60" height="60" viewBox="0 0 60 60" fill="none" xmlns="http://www.w3.org/2000/svg">
<path d="M30 38.1249C29.7536 38.1261 29.5095 38.078 29.282 37.9836C29.0544 37.8891 28.8481 37.7502 28.675 37.5749L16.175 25.0749C15.9256 24.7102 15.8131 24.2691 15.8573 23.8295C15.9014 23.3899 16.0994 22.98 16.4162 22.6721C16.7331 22.3642 17.1485 22.1781 17.5892 22.1466C18.0299 22.1151 18.4675 22.2402 18.825 22.4999L30 33.5999L41.175 22.4999C41.5274 22.2714 41.9463 22.1679 42.3645 22.2059C42.7828 22.2438 43.1762 22.4211 43.4817 22.7093C43.7872 22.9975 43.987 23.3799 44.0493 23.7953C44.1115 24.2106 44.0325 24.6348 43.825 24.9999L31.325 37.4999C31.1583 37.6888 30.9548 37.8417 30.727 37.9492C30.4991 38.0566 30.2517 38.1164 30 38.1249Z" fill="#29A0C1"/>
</svg>
