<svg width="40" height="40" viewBox="0 0 40 40" fill="none" xmlns="http://www.w3.org/2000/svg">
<path d="M27.6666 23.3333C27.3333 23.1667 25.1666 22.1667 24.8333 22C24.5 21.8333 24.1666 21.8333 23.8333 22.1667C23.5 22.5 22.8333 23.5 22.5 23.8333C22.3333 24.1667 22 24.1667 21.6666 24C20.5 23.5 19.3333 22.8333 18.3333 22C17.5 21.1667 16.6666 20.1667 16 19.1667C15.8333 18.8333 16 18.5 16.1666 18.3333C16.3333 18.1667 16.5 17.8333 16.8333 17.6667C17 17.5 17.1666 17.1667 17.1666 17C17.3333 16.8333 17.3333 16.5 17.1666 16.3333C17 16.1666 16.1666 14.1666 15.8333 13.3333C15.6666 12.1666 15.3333 12.1666 15 12.1666C14.8333 12.1666 14.5 12.1666 14.1666 12.1666C13.8333 12.1666 13.3333 12.5 13.1666 12.6666C12.1666 13.6666 11.6666 14.8333 11.6666 16.1666C11.8333 17.6667 12.3333 19.1667 13.3333 20.5C15.1666 23.1667 17.5 25.3333 20.3333 26.6667C21.1666 27 21.8333 27.3333 22.6666 27.5C23.5 27.8333 24.3333 27.8333 25.3333 27.6667C26.5 27.5 27.5 26.6667 28.1666 25.6667C28.5 25 28.5 24.3333 28.3333 23.6667C28.3333 23.6667 28 23.5 27.6666 23.3333ZM31.8333 8.16663C25.3333 1.66662 14.8333 1.66662 8.33331 8.16663C2.99998 13.5 1.99998 21.6667 5.66665 28.1667L3.33331 36.6667L12.1666 34.3333C14.6666 35.6667 17.3333 36.3333 20 36.3333C29.1666 36.3333 36.5 29 36.5 19.8333C36.6666 15.4999 34.8333 11.3333 31.8333 8.16663ZM27.3333 31.5C25.1666 32.8333 22.6666 33.6667 20 33.6667C17.5 33.6667 15.1666 33 13 31.8333L12.5 31.5L7.33331 32.8333L8.66665 27.8333L8.33331 27.3333C4.33331 20.6667 6.33331 12.3333 12.8333 8.16663C19.3333 3.99996 27.6666 6.16663 31.6666 12.5C35.6666 19 33.8333 27.5 27.3333 31.5Z" fill="white"/>
</svg>
