<?xml version="1.0" encoding="UTF-8"?>
<!DOCTYPE svg PUBLIC "-//W3C//DTD SVG 1.1//EN" "http://www.w3.org/Graphics/SVG/1.1/DTD/svg11.dtd">
<svg xmlns="http://www.w3.org/2000/svg" version="1.1" width="512px" height="512px" style="shape-rendering:geometricPrecision; text-rendering:geometricPrecision; image-rendering:optimizeQuality; fill-rule:evenodd; clip-rule:evenodd" xmlns:xlink="http://www.w3.org/1999/xlink">
<g><path style="opacity:0.99" fill="#000000" d="M 237.5,20.5 C 332.121,17.389 405.288,55.0556 457,133.5C 496.812,204.367 501.145,277.367 470,352.5C 434.75,425.726 377.25,470.559 297.5,487C 201.108,500.444 123.275,468.944 64,392.5C 20.5971,328.458 9.59708,259.125 31,184.5C 61.1538,99.0113 120.321,45.8446 208.5,25C 218.273,23.241 227.939,21.741 237.5,20.5 Z M 252.5,106.5 C 264.943,106.624 272.776,112.624 276,124.5C 276.333,130.167 276.667,135.833 277,141.5C 301.667,150.167 318.333,166.833 327,191.5C 329.505,202.982 325.672,211.482 315.5,217C 305.274,220.369 296.774,217.869 290,209.5C 281.347,183.589 263.847,174.756 237.5,183C 224.501,190.317 220.335,201.151 225,215.5C 228.715,222.881 234.549,227.715 242.5,230C 254.868,232.509 267.201,235.175 279.5,238C 320.116,253.729 335.616,282.896 326,325.5C 316.817,348.523 300.317,363.19 276.5,369.5C 276.666,375.176 276.499,380.843 276,386.5C 273.59,397.466 266.757,403.466 255.5,404.5C 246.313,403.468 239.813,398.801 236,390.5C 234.827,383.563 234.16,376.563 234,369.5C 209.333,360.833 192.667,344.167 184,319.5C 181.495,308.018 185.328,299.518 195.5,294C 205.726,290.631 214.226,293.131 221,301.5C 227.467,323.954 242.3,333.454 265.5,330C 283.882,324.409 290.715,312.242 286,293.5C 282.536,285.681 276.703,280.514 268.5,278C 254.069,275.047 239.736,271.714 225.5,268C 192.459,253.093 178.293,227.593 183,191.5C 190.596,165.404 207.429,148.404 233.5,140.5C 234.329,135.198 234.829,129.864 235,124.5C 237.014,114.654 242.847,108.654 252.5,106.5 Z"/></g>
</svg>
