<?xml version="1.0" encoding="UTF-8"?>
<svg viewBox="0 0 793.7 1122.5" xmlns="http://www.w3.org/2000/svg">
 <path d="m97.61 114.77c-39.452 0-71.599 32.147-71.599 71.673v549.49c0 39.526 32.147 71.672 71.599 71.672h549.64c39.452 0 71.599-32.147 71.599-71.672v-549.49c0-39.526-32.146-71.673-71.599-71.673h-549.64z" fill="#fff"/>
 <path d="m663.24 825.29c47.562 0 86.211-38.649 86.211-86.357v-549.49c0-47.709-38.649-86.212-86.211-86.212h-549.64c-47.562 0-86.212 38.503-86.212 86.212v549.49c0 47.708 38.65 86.357 86.212 86.357h549.64z" fill="#f00"/>
 <g fill="#fff">
  <path d="m359.6 153.18c-29.151 3.1412-135.02 51.654-138.16 301.23-3.2881 263.02 109.01 318.4 138.45 317.81v-173.66c-24.256 0-29.151-26.448-34.703-80.951-3.5803-36.091-4.7492-80.585 0-125.01 3.4342-31.051 9.1322-61.444 34.557-61.444l-0.1461-177.98v1.5e-5z"/>
  <path d="m439.9 774.51c11.324 0 19.288-9.133 19.288-19.434l0.1461-0.1461s-0.14609-135.24-0.14609-135.38c0-10.74-8.6939-19.142-19.288-19.142h-49.243v174.1s49.097 0.14606 49.097 0h0.14609z"/>
  <path d="m439.9 333.15c11.324 0 19.288-9.133 19.288-19.434h0.14609s-0.14609-139.25-0.14609-139.4c0-10.74-8.6939-19.142-19.288-19.142h-49.243v177.98l49.097 0.1461 0.1461-0.1461z"/>
 </g>
 <text x="-216.700806" y="195.480347" font-family="Arial" font-size="24" stroke-width="0" text-anchor="middle"/>
</svg>
