<?xml version="1.0" encoding="UTF-8"?>
<svg enable-background="new 0 0 38.1 38.1" version="1.1" viewBox="0 0 38.1 38.1" xmlns="http://www.w3.org/2000/svg">
 <style type="text/css">.st0{fill:#00A5CB;} .st1{fill:#0190B0;} .st2{fill:#FFFFFF;} .st3{fill:#F2F2F2;}</style>
 <path class="st0" d="M19,38C8.6,38,0.2,29.5,0.2,19.1S8.6,0.3,19,0.3"/>
 <path class="st1" d="M19,0.3c10.4,0,18.8,8.4,18.8,18.8S29.4,38,19,38"/>
 <path class="st2" d="m27.5 15.8c-0.1-0.9-0.4-1.8-1-2.7-0.9-1.2-2.3-1.9-3.8-1.9-1.7 0-2.5 1-3.7 2-1.1-1.5-2.7-2.4-4.6-2.1-2.3 0.4-3.7 2.7-3.8 4.9-0.1 2 0.8 4 2 5.6 0.9 1.2 2 2.2 3.1 3.1 0.6 0.5 2.4 2 2.8 2.2 0.5 0.3 1-0.1 1.5-0.4 0.4-0.3 0.8-0.6 1.2-0.8 1.1-0.8 2.2-1.7 3.1-2.7 1.8-1.7 3.4-4.5 3.2-7.2z"/>
</svg>
